<svg width="167" height="52" viewBox="0 0 167 52" fill="none" xmlns="http://www.w3.org/2000/svg">
<rect x="1" y="1" width="165" height="50" rx="5" fill="white" stroke="black" stroke-width="2"/>
<path d="M57.9837 21.6943H60.8592V28.7085H65.347V31H57.9837V21.6943ZM66.5843 26.3535C66.5843 24.8343 67.0074 23.6515 67.8538 22.8052C68.7001 21.9588 69.8787 21.5356 71.3894 21.5356C72.9383 21.5356 74.1316 21.9525 74.9695 22.7861C75.8074 23.6156 76.2263 24.7793 76.2263 26.2773C76.2263 27.3649 76.0423 28.2578 75.6741 28.9561C75.3102 29.6501 74.7812 30.1917 74.0872 30.5811C73.3974 30.9661 72.5362 31.1587 71.5037 31.1587C70.4542 31.1587 69.5846 30.9915 68.8948 30.6572C68.2093 30.3229 67.6528 29.7939 67.2254 29.0703C66.798 28.3467 66.5843 27.4411 66.5843 26.3535ZM69.4597 26.3662C69.4597 27.3057 69.6332 27.9806 69.9803 28.3911C70.3315 28.8016 70.8076 29.0068 71.4085 29.0068C72.0263 29.0068 72.5045 28.8058 72.843 28.4038C73.1816 28.0018 73.3509 27.2803 73.3509 26.2393C73.3509 25.3633 73.1731 24.7243 72.8177 24.3223C72.4664 23.916 71.9882 23.7129 71.3831 23.7129C70.8033 23.7129 70.3378 23.9181 69.9866 24.3286C69.6354 24.7391 69.4597 25.4183 69.4597 26.3662ZM82.9734 27.6294V25.6934H87.4168V29.6606C86.5662 30.2404 85.8129 30.6361 85.157 30.8477C84.5053 31.055 83.7309 31.1587 82.8338 31.1587C81.7293 31.1587 80.8279 30.9704 80.1297 30.5938C79.4356 30.2171 78.8961 29.6564 78.511 28.9116C78.1301 28.1668 77.9397 27.312 77.9397 26.3472C77.9397 25.3315 78.1492 24.4492 78.5681 23.7002C78.9871 22.9469 79.6007 22.3757 80.4089 21.9863C81.0395 21.6859 81.888 21.5356 82.9544 21.5356C83.9827 21.5356 84.7507 21.6287 85.2586 21.8149C85.7706 22.0011 86.1938 22.291 86.5281 22.6846C86.8666 23.0739 87.1205 23.569 87.2898 24.1699L84.5159 24.665C84.4016 24.3138 84.207 24.0451 83.9319 23.8589C83.6611 23.6727 83.3141 23.5796 82.8909 23.5796C82.2603 23.5796 81.7568 23.7996 81.3801 24.2397C81.0077 24.6756 80.8215 25.3675 80.8215 26.3154C80.8215 27.3226 81.0099 28.042 81.3865 28.4736C81.7673 28.9053 82.2963 29.1211 82.9734 29.1211C83.295 29.1211 83.6018 29.0745 83.8938 28.9814C84.1858 28.8883 84.5201 28.7297 84.8967 28.5054V27.6294H82.9734ZM94.6203 21.6943H97.5022V31H94.6203V21.6943ZM100.111 21.6943H102.796L106.3 26.8423V21.6943H109.01V31H106.3L102.815 25.8901V31H100.111V21.6943Z" fill="black"/>
</svg>
